<svg xmlns="http://www.w3.org/2000/svg" xmlns:xlink="http://www.w3.org/1999/xlink" width="566" zoomAndPan="magnify" viewBox="0 0 424.5 573.749983" height="765" preserveAspectRatio="xMidYMid meet" version="1.0"><defs><g/><clipPath id="bcb91388e3"><path d="M 0.09375 20 L 61 20 L 61 74 L 0.09375 74 Z M 0.09375 20 " clip-rule="nonzero"/></clipPath><clipPath id="5b17338dd1"><rect x="0" width="344" y="0" height="94"/></clipPath></defs><path fill="#3f3f3f" d="M 230.773438 417.308594 C 277.625 412.371094 269.753906 339.613281 232.003906 319.796875 C 206.996094 306.664062 173.230469 307.238281 150.628906 316.09375 C 107.757812 332.886719 96.378906 354.359375 90.214844 396.328125 C 84.050781 438.296875 104.707031 549.308594 154.328125 561.734375 C 198.714844 572.84375 215.84375 551.300781 211.042969 530.875 C 206.113281 509.890625 181.804688 482.707031 180.21875 464.21875 C 176.519531 421.015625 230.773438 417.3125 230.773438 417.3125 Z M 230.773438 417.308594 " fill-opacity="1" fill-rule="nonzero"/><path fill="#3f3f3f" d="M 314.261719 314.871094 C 301.710938 333.121094 277.894531 338.511719 261.070312 326.914062 C 244.246094 315.316406 240.777344 291.121094 253.328125 272.871094 C 265.878906 254.625 289.695312 249.234375 306.519531 260.832031 C 323.34375 272.429688 326.8125 296.625 314.261719 314.871094 Z M 314.261719 314.871094 " fill-opacity="1" fill-rule="nonzero"/><path fill="#3f3f3f" d="M 217.503906 303.382812 C 206.761719 305.210938 196.617188 298.253906 194.847656 287.835938 C 193.074219 277.421875 199.929688 261.761719 210.671875 259.933594 C 221.414062 258.101562 231.554688 265.0625 233.328125 275.476562 C 235.101562 285.894531 228.242188 301.550781 217.503906 303.382812 Z M 217.503906 303.382812 " fill-opacity="1" fill-rule="nonzero"/><path fill="#3f3f3f" d="M 182.675781 295.859375 C 176.59375 304.496094 167.679688 306.15625 158.777344 299.875 C 149.871094 293.589844 147.777344 275.664062 153.859375 267.027344 C 159.941406 258.394531 168.851562 256.730469 177.757812 263.015625 C 186.660156 269.300781 188.757812 287.222656 182.675781 295.859375 Z M 182.675781 295.859375 " fill-opacity="1" fill-rule="nonzero"/><path fill="#3f3f3f" d="M 145.476562 302.347656 C 143.609375 311.359375 134.257812 317.035156 124.589844 315.027344 C 114.921875 313.015625 107.0625 299.351562 108.929688 290.339844 C 110.800781 281.328125 120.152344 275.652344 129.816406 277.660156 C 139.484375 279.671875 147.347656 293.335938 145.476562 302.347656 Z M 145.476562 302.347656 " fill-opacity="1" fill-rule="nonzero"/><path fill="#3f3f3f" d="M 106.203125 315.25 C 111.703125 323.460938 110.65625 333.8125 103.871094 338.367188 C 97.082031 342.921875 87.125 339.960938 81.625 331.75 C 76.125 323.539062 77.171875 313.1875 83.960938 308.632812 C 90.746094 304.078125 100.707031 307.042969 106.203125 315.25 Z M 106.203125 315.25 " fill-opacity="1" fill-rule="nonzero"/><g transform="matrix(1, 0, 0, 1, 21, 120)"><g clip-path="url(#5b17338dd1)"><g clip-path="url(#bcb91388e3)"><g fill="#000000" fill-opacity="1"><g transform="translate(1.109837, 73.761567)"><g><path d="M 41.546875 -11.453125 L 16.71875 -11.453125 L 11.984375 0 L -0.6875 0 L 23.140625 -53.46875 L 35.359375 -53.46875 L 59.265625 0 L 46.28125 0 Z M 37.65625 -20.84375 L 29.171875 -41.3125 L 20.703125 -20.84375 Z M 37.65625 -20.84375 "/></g></g></g></g><g fill="#000000" fill-opacity="1"><g transform="translate(59.606755, 73.761567)"><g><path d="M 29.484375 -53.46875 C 34.210938 -53.46875 38.320312 -52.675781 41.8125 -51.09375 C 45.300781 -49.519531 47.988281 -47.28125 49.875 -44.375 C 51.757812 -41.46875 52.703125 -38.03125 52.703125 -34.0625 C 52.703125 -30.144531 51.757812 -26.722656 49.875 -23.796875 C 47.988281 -20.867188 45.300781 -18.625 41.8125 -17.0625 C 38.320312 -15.507812 34.210938 -14.734375 29.484375 -14.734375 L 18.71875 -14.734375 L 18.71875 0 L 6.34375 0 L 6.34375 -53.46875 Z M 28.796875 -24.828125 C 32.515625 -24.828125 35.335938 -25.628906 37.265625 -27.234375 C 39.203125 -28.835938 40.171875 -31.113281 40.171875 -34.0625 C 40.171875 -37.0625 39.203125 -39.363281 37.265625 -40.96875 C 35.335938 -42.570312 32.515625 -43.375 28.796875 -43.375 L 18.71875 -43.375 L 18.71875 -24.828125 Z M 28.796875 -24.828125 "/></g></g></g><g fill="#000000" fill-opacity="1"><g transform="translate(115.507196, 73.761567)"><g><path d="M 29.484375 -53.46875 C 34.210938 -53.46875 38.320312 -52.675781 41.8125 -51.09375 C 45.300781 -49.519531 47.988281 -47.28125 49.875 -44.375 C 51.757812 -41.46875 52.703125 -38.03125 52.703125 -34.0625 C 52.703125 -30.144531 51.757812 -26.722656 49.875 -23.796875 C 47.988281 -20.867188 45.300781 -18.625 41.8125 -17.0625 C 38.320312 -15.507812 34.210938 -14.734375 29.484375 -14.734375 L 18.71875 -14.734375 L 18.71875 0 L 6.34375 0 L 6.34375 -53.46875 Z M 28.796875 -24.828125 C 32.515625 -24.828125 35.335938 -25.628906 37.265625 -27.234375 C 39.203125 -28.835938 40.171875 -31.113281 40.171875 -34.0625 C 40.171875 -37.0625 39.203125 -39.363281 37.265625 -40.96875 C 35.335938 -42.570312 32.515625 -43.375 28.796875 -43.375 L 18.71875 -43.375 L 18.71875 -24.828125 Z M 28.796875 -24.828125 "/></g></g></g><g fill="#000000" fill-opacity="1"><g transform="translate(171.407636, 73.761567)"><g><path d="M 41.546875 -11.453125 L 16.71875 -11.453125 L 11.984375 0 L -0.6875 0 L 23.140625 -53.46875 L 35.359375 -53.46875 L 59.265625 0 L 46.28125 0 Z M 37.65625 -20.84375 L 29.171875 -41.3125 L 20.703125 -20.84375 Z M 37.65625 -20.84375 "/></g></g></g><g fill="#000000" fill-opacity="1"><g transform="translate(229.904554, 73.761567)"><g><path d="M 23.90625 0.921875 C 19.675781 0.921875 15.585938 0.347656 11.640625 -0.796875 C 7.703125 -1.941406 4.535156 -3.429688 2.140625 -5.265625 L 6.34375 -14.59375 C 8.632812 -12.90625 11.359375 -11.550781 14.515625 -10.53125 C 17.671875 -9.519531 20.828125 -9.015625 23.984375 -9.015625 C 27.492188 -9.015625 30.085938 -9.535156 31.765625 -10.578125 C 33.453125 -11.617188 34.296875 -13.003906 34.296875 -14.734375 C 34.296875 -16.015625 33.796875 -17.070312 32.796875 -17.90625 C 31.804688 -18.75 30.535156 -19.425781 28.984375 -19.9375 C 27.429688 -20.445312 25.332031 -21.003906 22.6875 -21.609375 C 18.613281 -22.578125 15.273438 -23.546875 12.671875 -24.515625 C 10.078125 -25.484375 7.847656 -27.035156 5.984375 -29.171875 C 4.128906 -31.316406 3.203125 -34.171875 3.203125 -37.734375 C 3.203125 -40.835938 4.039062 -43.648438 5.71875 -46.171875 C 7.40625 -48.691406 9.941406 -50.6875 13.328125 -52.15625 C 16.710938 -53.632812 20.847656 -54.375 25.734375 -54.375 C 29.148438 -54.375 32.484375 -53.96875 35.734375 -53.15625 C 38.992188 -52.34375 41.847656 -51.171875 44.296875 -49.640625 L 40.484375 -40.25 C 35.546875 -43.050781 30.601562 -44.453125 25.65625 -44.453125 C 22.195312 -44.453125 19.640625 -43.890625 17.984375 -42.765625 C 16.328125 -41.648438 15.5 -40.175781 15.5 -38.34375 C 15.5 -36.507812 16.453125 -35.144531 18.359375 -34.25 C 20.273438 -33.363281 23.191406 -32.488281 27.109375 -31.625 C 31.179688 -30.65625 34.515625 -29.6875 37.109375 -28.71875 C 39.710938 -27.75 41.941406 -26.21875 43.796875 -24.125 C 45.660156 -22.039062 46.59375 -19.21875 46.59375 -15.65625 C 46.59375 -12.601562 45.738281 -9.816406 44.03125 -7.296875 C 42.320312 -4.773438 39.757812 -2.773438 36.34375 -1.296875 C 32.9375 0.179688 28.789062 0.921875 23.90625 0.921875 Z M 23.90625 0.921875 "/></g></g></g><g fill="#000000" fill-opacity="1"><g transform="translate(278.626531, 73.761567)"><g><path d="M 32.234375 0.921875 C 26.679688 0.921875 21.675781 -0.273438 17.21875 -2.671875 C 12.769531 -5.066406 9.285156 -8.363281 6.765625 -12.5625 C 4.242188 -16.757812 2.984375 -21.484375 2.984375 -26.734375 C 2.984375 -31.972656 4.242188 -36.691406 6.765625 -40.890625 C 9.285156 -45.097656 12.769531 -48.394531 17.21875 -50.78125 C 21.675781 -53.175781 26.679688 -54.375 32.234375 -54.375 C 37.785156 -54.375 42.773438 -53.175781 47.203125 -50.78125 C 51.628906 -48.394531 55.113281 -45.097656 57.65625 -40.890625 C 60.207031 -36.691406 61.484375 -31.972656 61.484375 -26.734375 C 61.484375 -21.484375 60.207031 -16.757812 57.65625 -12.5625 C 55.113281 -8.363281 51.628906 -5.066406 47.203125 -2.671875 C 42.773438 -0.273438 37.785156 0.921875 32.234375 0.921875 Z M 32.234375 -9.625 C 35.390625 -9.625 38.238281 -10.347656 40.78125 -11.796875 C 43.332031 -13.253906 45.332031 -15.28125 46.78125 -17.875 C 48.226562 -20.46875 48.953125 -23.421875 48.953125 -26.734375 C 48.953125 -30.046875 48.226562 -33 46.78125 -35.59375 C 45.332031 -38.1875 43.332031 -40.207031 40.78125 -41.65625 C 38.238281 -43.113281 35.390625 -43.84375 32.234375 -43.84375 C 29.078125 -43.84375 26.222656 -43.113281 23.671875 -41.65625 C 21.128906 -40.207031 19.128906 -38.1875 17.671875 -35.59375 C 16.222656 -33 15.5 -30.046875 15.5 -26.734375 C 15.5 -23.421875 16.222656 -20.46875 17.671875 -17.875 C 19.128906 -15.28125 21.128906 -13.253906 23.671875 -11.796875 C 26.222656 -10.347656 29.078125 -9.625 32.234375 -9.625 Z M 32.234375 -9.625 "/></g></g></g></g></g><g fill="#000000" fill-opacity="1"><g transform="translate(22.109837, 58.889522)"><g><path d="M 18.5 -33.5625 C 21.476562 -33.5625 24.0625 -33.0625 26.25 -32.0625 C 28.4375 -31.070312 30.117188 -29.664062 31.296875 -27.84375 C 32.484375 -26.03125 33.078125 -23.875 33.078125 -21.375 C 33.078125 -18.914062 32.484375 -16.765625 31.296875 -14.921875 C 30.117188 -13.085938 28.4375 -11.679688 26.25 -10.703125 C 24.0625 -9.734375 21.476562 -9.25 18.5 -9.25 L 11.75 -9.25 L 11.75 0 L 3.984375 0 L 3.984375 -33.5625 Z M 18.078125 -15.578125 C 20.410156 -15.578125 22.179688 -16.078125 23.390625 -17.078125 C 24.609375 -18.085938 25.21875 -19.519531 25.21875 -21.375 C 25.21875 -23.257812 24.609375 -24.707031 23.390625 -25.71875 C 22.179688 -26.726562 20.410156 -27.234375 18.078125 -27.234375 L 11.75 -27.234375 L 11.75 -15.578125 Z M 18.078125 -15.578125 "/></g></g></g><g fill="#000000" fill-opacity="1"><g transform="translate(57.204436, 58.889522)"><g><path d="M 3.984375 -33.5625 L 11.75 -33.5625 L 11.75 -6.328125 L 28.578125 -6.328125 L 28.578125 0 L 3.984375 0 Z M 3.984375 -33.5625 "/></g></g></g><g fill="#000000" fill-opacity="1"><g transform="translate(86.162274, 58.889522)"><g><path d="M 26.078125 -7.1875 L 10.5 -7.1875 L 7.53125 0 L -0.4375 0 L 14.53125 -33.5625 L 22.1875 -33.5625 L 37.203125 0 L 29.046875 0 Z M 23.640625 -13.09375 L 18.3125 -25.9375 L 12.984375 -13.09375 Z M 23.640625 -13.09375 "/></g></g></g><g fill="#000000" fill-opacity="1"><g transform="translate(122.88695, 58.889522)"><g><path d="M 10.9375 -27.234375 L 0.1875 -27.234375 L 0.1875 -33.5625 L 29.4375 -33.5625 L 29.4375 -27.234375 L 18.703125 -27.234375 L 18.703125 0 L 10.9375 0 Z M 10.9375 -27.234375 "/></g></g></g><g fill="#000000" fill-opacity="1"><g transform="translate(152.515994, 58.889522)"><g><path d="M 26.078125 -7.1875 L 10.5 -7.1875 L 7.53125 0 L -0.4375 0 L 14.53125 -33.5625 L 22.1875 -33.5625 L 37.203125 0 L 29.046875 0 Z M 23.640625 -13.09375 L 18.3125 -25.9375 L 12.984375 -13.09375 Z M 23.640625 -13.09375 "/></g></g></g><g fill="#000000" fill-opacity="1"><g transform="translate(189.240669, 58.889522)"><g><path d="M 11.75 -27.328125 L 11.75 -18.453125 L 27.28125 -18.453125 L 27.28125 -12.21875 L 11.75 -12.21875 L 11.75 0 L 3.984375 0 L 3.984375 -33.5625 L 29.34375 -33.5625 L 29.34375 -27.328125 Z M 11.75 -27.328125 "/></g></g></g><g fill="#000000" fill-opacity="1"><g transform="translate(219.876524, 58.889522)"><g><path d="M 20.234375 0.578125 C 16.742188 0.578125 13.597656 -0.171875 10.796875 -1.671875 C 8.003906 -3.179688 5.816406 -5.253906 4.234375 -7.890625 C 2.660156 -10.523438 1.875 -13.488281 1.875 -16.78125 C 1.875 -20.070312 2.660156 -23.035156 4.234375 -25.671875 C 5.816406 -28.304688 8.003906 -30.375 10.796875 -31.875 C 13.597656 -33.375 16.742188 -34.125 20.234375 -34.125 C 23.710938 -34.125 26.84375 -33.375 29.625 -31.875 C 32.40625 -30.375 34.59375 -28.304688 36.1875 -25.671875 C 37.789062 -23.035156 38.59375 -20.070312 38.59375 -16.78125 C 38.59375 -13.488281 37.789062 -10.523438 36.1875 -7.890625 C 34.59375 -5.253906 32.40625 -3.179688 29.625 -1.671875 C 26.84375 -0.171875 23.710938 0.578125 20.234375 0.578125 Z M 20.234375 -6.046875 C 22.210938 -6.046875 24 -6.5 25.59375 -7.40625 C 27.195312 -8.3125 28.453125 -9.578125 29.359375 -11.203125 C 30.273438 -12.835938 30.734375 -14.695312 30.734375 -16.78125 C 30.734375 -18.851562 30.273438 -20.703125 29.359375 -22.328125 C 28.453125 -23.960938 27.195312 -25.234375 25.59375 -26.140625 C 24 -27.054688 22.210938 -27.515625 20.234375 -27.515625 C 18.242188 -27.515625 16.453125 -27.054688 14.859375 -26.140625 C 13.265625 -25.234375 12.007812 -23.960938 11.09375 -22.328125 C 10.1875 -20.703125 9.734375 -18.851562 9.734375 -16.78125 C 9.734375 -14.695312 10.1875 -12.835938 11.09375 -11.203125 C 12.007812 -9.578125 13.265625 -8.3125 14.859375 -7.40625 C 16.453125 -6.5 18.242188 -6.046875 20.234375 -6.046875 Z M 20.234375 -6.046875 "/></g></g></g><g fill="#000000" fill-opacity="1"><g transform="translate(260.340808, 58.889522)"><g><path d="M 25.359375 0 L 18.890625 -9.34375 L 11.75 -9.34375 L 11.75 0 L 3.984375 0 L 3.984375 -33.5625 L 18.5 -33.5625 C 21.476562 -33.5625 24.0625 -33.0625 26.25 -32.0625 C 28.4375 -31.070312 30.117188 -29.664062 31.296875 -27.84375 C 32.484375 -26.03125 33.078125 -23.875 33.078125 -21.375 C 33.078125 -18.882812 32.476562 -16.734375 31.28125 -14.921875 C 30.082031 -13.117188 28.378906 -11.738281 26.171875 -10.78125 L 33.703125 0 Z M 25.21875 -21.375 C 25.21875 -23.257812 24.609375 -24.707031 23.390625 -25.71875 C 22.179688 -26.726562 20.410156 -27.234375 18.078125 -27.234375 L 11.75 -27.234375 L 11.75 -15.53125 L 18.078125 -15.53125 C 20.410156 -15.53125 22.179688 -16.039062 23.390625 -17.0625 C 24.609375 -18.082031 25.21875 -19.519531 25.21875 -21.375 Z M 25.21875 -21.375 "/></g></g></g><g fill="#000000" fill-opacity="1"><g transform="translate(295.579239, 58.889522)"><g><path d="M 34.515625 0 L 34.46875 -20.140625 L 24.59375 -3.546875 L 21.09375 -3.546875 L 11.265625 -19.703125 L 11.265625 0 L 3.984375 0 L 3.984375 -33.5625 L 10.40625 -33.5625 L 22.96875 -12.703125 L 35.328125 -33.5625 L 41.703125 -33.5625 L 41.796875 0 Z M 34.515625 0 "/></g></g></g><g fill="#000000" fill-opacity="1"><g transform="translate(341.365235, 58.889522)"><g><path d="M 26.078125 -7.1875 L 10.5 -7.1875 L 7.53125 0 L -0.4375 0 L 14.53125 -33.5625 L 22.1875 -33.5625 L 37.203125 0 L 29.046875 0 Z M 23.640625 -13.09375 L 18.3125 -25.9375 L 12.984375 -13.09375 Z M 23.640625 -13.09375 "/></g></g></g><g fill="#000000" fill-opacity="1"><g transform="translate(22.109837, 109.080402)"><g><path d="M 29.953125 -6.234375 L 29.953125 0 L 3.984375 0 L 3.984375 -33.5625 L 29.34375 -33.5625 L 29.34375 -27.328125 L 11.703125 -27.328125 L 11.703125 -20.03125 L 27.28125 -20.03125 L 27.28125 -14 L 11.703125 -14 L 11.703125 -6.234375 Z M 29.953125 -6.234375 "/></g></g></g><g fill="#000000" fill-opacity="1"><g transform="translate(54.279887, 109.080402)"><g><path d="M 3.984375 -33.5625 L 19.21875 -33.5625 C 22.863281 -33.5625 26.082031 -32.863281 28.875 -31.46875 C 31.675781 -30.082031 33.851562 -28.125 35.40625 -25.59375 C 36.957031 -23.070312 37.734375 -20.132812 37.734375 -16.78125 C 37.734375 -13.425781 36.957031 -10.484375 35.40625 -7.953125 C 33.851562 -5.429688 31.675781 -3.472656 28.875 -2.078125 C 26.082031 -0.691406 22.863281 0 19.21875 0 L 3.984375 0 Z M 18.84375 -6.375 C 22.195312 -6.375 24.867188 -7.304688 26.859375 -9.171875 C 28.859375 -11.046875 29.859375 -13.582031 29.859375 -16.78125 C 29.859375 -19.976562 28.859375 -22.507812 26.859375 -24.375 C 24.867188 -26.25 22.195312 -27.1875 18.84375 -27.1875 L 11.75 -27.1875 L 11.75 -6.375 Z M 18.84375 -6.375 "/></g></g></g><g fill="#000000" fill-opacity="1"><g transform="translate(93.881171, 109.080402)"><g><path d="M 18.890625 0.578125 C 14.097656 0.578125 10.363281 -0.742188 7.6875 -3.390625 C 5.019531 -6.046875 3.6875 -9.835938 3.6875 -14.765625 L 3.6875 -33.5625 L 11.453125 -33.5625 L 11.453125 -15.046875 C 11.453125 -9.046875 13.945312 -6.046875 18.9375 -6.046875 C 21.363281 -6.046875 23.210938 -6.769531 24.484375 -8.21875 C 25.765625 -9.675781 26.40625 -11.953125 26.40625 -15.046875 L 26.40625 -33.5625 L 34.078125 -33.5625 L 34.078125 -14.765625 C 34.078125 -9.835938 32.742188 -6.046875 30.078125 -3.390625 C 27.410156 -0.742188 23.679688 0.578125 18.890625 0.578125 Z M 18.890625 0.578125 "/></g></g></g><g fill="#000000" fill-opacity="1"><g transform="translate(131.660607, 109.080402)"><g><path d="M 20.03125 0.578125 C 16.613281 0.578125 13.519531 -0.164062 10.75 -1.65625 C 7.988281 -3.144531 5.816406 -5.207031 4.234375 -7.84375 C 2.660156 -10.476562 1.875 -13.457031 1.875 -16.78125 C 1.875 -20.101562 2.660156 -23.082031 4.234375 -25.71875 C 5.816406 -28.351562 7.988281 -30.410156 10.75 -31.890625 C 13.519531 -33.378906 16.628906 -34.125 20.078125 -34.125 C 22.992188 -34.125 25.625 -33.613281 27.96875 -32.59375 C 30.320312 -31.570312 32.296875 -30.101562 33.890625 -28.1875 L 28.90625 -23.578125 C 26.632812 -26.203125 23.820312 -27.515625 20.46875 -27.515625 C 18.394531 -27.515625 16.539062 -27.054688 14.90625 -26.140625 C 13.28125 -25.234375 12.007812 -23.960938 11.09375 -22.328125 C 10.1875 -20.703125 9.734375 -18.851562 9.734375 -16.78125 C 9.734375 -14.695312 10.1875 -12.835938 11.09375 -11.203125 C 12.007812 -9.578125 13.28125 -8.3125 14.90625 -7.40625 C 16.539062 -6.5 18.394531 -6.046875 20.46875 -6.046875 C 23.820312 -6.046875 26.632812 -7.367188 28.90625 -10.015625 L 33.890625 -5.421875 C 32.296875 -3.472656 30.316406 -1.984375 27.953125 -0.953125 C 25.585938 0.0664062 22.945312 0.578125 20.03125 0.578125 Z M 20.03125 0.578125 "/></g></g></g><g fill="#000000" fill-opacity="1"><g transform="translate(166.803157, 109.080402)"><g><path d="M 26.078125 -7.1875 L 10.5 -7.1875 L 7.53125 0 L -0.4375 0 L 14.53125 -33.5625 L 22.1875 -33.5625 L 37.203125 0 L 29.046875 0 Z M 23.640625 -13.09375 L 18.3125 -25.9375 L 12.984375 -13.09375 Z M 23.640625 -13.09375 "/></g></g></g><g fill="#000000" fill-opacity="1"><g transform="translate(203.527832, 109.080402)"><g><path d="M 20.03125 0.578125 C 16.613281 0.578125 13.519531 -0.164062 10.75 -1.65625 C 7.988281 -3.144531 5.816406 -5.207031 4.234375 -7.84375 C 2.660156 -10.476562 1.875 -13.457031 1.875 -16.78125 C 1.875 -20.101562 2.660156 -23.082031 4.234375 -25.71875 C 5.816406 -28.351562 7.988281 -30.410156 10.75 -31.890625 C 13.519531 -33.378906 16.628906 -34.125 20.078125 -34.125 C 22.992188 -34.125 25.625 -33.613281 27.96875 -32.59375 C 30.320312 -31.570312 32.296875 -30.101562 33.890625 -28.1875 L 28.90625 -23.578125 C 26.632812 -26.203125 23.820312 -27.515625 20.46875 -27.515625 C 18.394531 -27.515625 16.539062 -27.054688 14.90625 -26.140625 C 13.28125 -25.234375 12.007812 -23.960938 11.09375 -22.328125 C 10.1875 -20.703125 9.734375 -18.851562 9.734375 -16.78125 C 9.734375 -14.695312 10.1875 -12.835938 11.09375 -11.203125 C 12.007812 -9.578125 13.28125 -8.3125 14.90625 -7.40625 C 16.539062 -6.5 18.394531 -6.046875 20.46875 -6.046875 C 23.820312 -6.046875 26.632812 -7.367188 28.90625 -10.015625 L 33.890625 -5.421875 C 32.296875 -3.472656 30.316406 -1.984375 27.953125 -0.953125 C 25.585938 0.0664062 22.945312 0.578125 20.03125 0.578125 Z M 20.03125 0.578125 "/></g></g></g><g fill="#000000" fill-opacity="1"><g transform="translate(238.670395, 109.080402)"><g><path d="M 3.984375 -33.5625 L 11.75 -33.5625 L 11.75 0 L 3.984375 0 Z M 3.984375 -33.5625 "/></g></g></g><g fill="#000000" fill-opacity="1"><g transform="translate(254.395829, 109.080402)"><g><path d="M 20.234375 0.578125 C 16.742188 0.578125 13.597656 -0.171875 10.796875 -1.671875 C 8.003906 -3.179688 5.816406 -5.253906 4.234375 -7.890625 C 2.660156 -10.523438 1.875 -13.488281 1.875 -16.78125 C 1.875 -20.070312 2.660156 -23.035156 4.234375 -25.671875 C 5.816406 -28.304688 8.003906 -30.375 10.796875 -31.875 C 13.597656 -33.375 16.742188 -34.125 20.234375 -34.125 C 23.710938 -34.125 26.84375 -33.375 29.625 -31.875 C 32.40625 -30.375 34.59375 -28.304688 36.1875 -25.671875 C 37.789062 -23.035156 38.59375 -20.070312 38.59375 -16.78125 C 38.59375 -13.488281 37.789062 -10.523438 36.1875 -7.890625 C 34.59375 -5.253906 32.40625 -3.179688 29.625 -1.671875 C 26.84375 -0.171875 23.710938 0.578125 20.234375 0.578125 Z M 20.234375 -6.046875 C 22.210938 -6.046875 24 -6.5 25.59375 -7.40625 C 27.195312 -8.3125 28.453125 -9.578125 29.359375 -11.203125 C 30.273438 -12.835938 30.734375 -14.695312 30.734375 -16.78125 C 30.734375 -18.851562 30.273438 -20.703125 29.359375 -22.328125 C 28.453125 -23.960938 27.195312 -25.234375 25.59375 -26.140625 C 24 -27.054688 22.210938 -27.515625 20.234375 -27.515625 C 18.242188 -27.515625 16.453125 -27.054688 14.859375 -26.140625 C 13.265625 -25.234375 12.007812 -23.960938 11.09375 -22.328125 C 10.1875 -20.703125 9.734375 -18.851562 9.734375 -16.78125 C 9.734375 -14.695312 10.1875 -12.835938 11.09375 -11.203125 C 12.007812 -9.578125 13.265625 -8.3125 14.859375 -7.40625 C 16.453125 -6.5 18.242188 -6.046875 20.234375 -6.046875 Z M 20.234375 -6.046875 "/></g></g></g><g fill="#000000" fill-opacity="1"><g transform="translate(294.860114, 109.080402)"><g><path d="M 34.75 -33.5625 L 34.75 0 L 28.375 0 L 11.65625 -20.375 L 11.65625 0 L 3.984375 0 L 3.984375 -33.5625 L 10.40625 -33.5625 L 27.078125 -13.1875 L 27.078125 -33.5625 Z M 34.75 -33.5625 "/></g></g></g><g fill="#000000" fill-opacity="1"><g transform="translate(333.598419, 109.080402)"><g><path d="M 26.078125 -7.1875 L 10.5 -7.1875 L 7.53125 0 L -0.4375 0 L 14.53125 -33.5625 L 22.1875 -33.5625 L 37.203125 0 L 29.046875 0 Z M 23.640625 -13.09375 L 18.3125 -25.9375 L 12.984375 -13.09375 Z M 23.640625 -13.09375 "/></g></g></g><g fill="#000000" fill-opacity="1"><g transform="translate(370.323083, 109.080402)"><g><path d="M 3.984375 -33.5625 L 11.75 -33.5625 L 11.75 -6.328125 L 28.578125 -6.328125 L 28.578125 0 L 3.984375 0 Z M 3.984375 -33.5625 "/></g></g></g></svg>